<svg width="24" height="24" viewBox="0 0 24 24" fill="none" xmlns="http://www.w3.org/2000/svg">
<path d="M8.428 1.67188C3.778 1.67188 1.244 5.82088 1.244 8.66988C1.244 10.9639 3.444 11.9689 5.494 11.9689L5.488 11.9629C9.732 11.9629 12.672 8.10887 12.672 4.96487C12.672 2.67487 10.497 1.67188 8.428 1.67188ZM19.756 1.67188C15.106 1.67188 12.572 5.82088 12.572 8.66988C12.572 10.9639 14.772 11.9689 16.822 11.9689L16.816 11.9629C21.061 11.9619 24 8.10887 24 4.96487C24 2.67487 21.82 1.67188 19.756 1.67188ZM14.172 14.5219L16.607 16.3559C14.437 18.4259 10.483 19.8809 7.254 19.5259C5.7575 19.3566 4.32832 18.8108 3.09998 17.9394C1.87164 17.0679 0.884234 15.8994 0.23 14.5429H0C0.404031 16.6313 1.49026 18.5264 3.08811 19.9306C4.68597 21.3348 6.70495 22.1685 8.828 22.3009C12.642 22.5409 16.151 21.3959 18.775 19.1709L18.771 19.1779L19.851 22.1659L21.406 14.5429L14.172 14.5219Z" fill="black"/>
</svg>
